# xmcd
#
# Track frame offsets:
#	150
#	11478
#	30094
#	56789
#	70928
#	125020
#	148630
#	172472
#	218185
#
# Disc length: 3350 seconds
#
# Revision: 0
# Processed by: cddbd v1.5.2PL0 Copyright (c) Steve Scherf et al.
# Submitted via: EasyCDDAExtractor 10.0.2.1
#
DISCID=850d1409
DTITLE=Jorma Kaukonen - Variety Playhouse, Atlanta GA
DYEAR=2003
DGENRE=Blues
TTITLE0=Intro
TTITLE1=Hesitation Blues
TTITLE2=Blue Railroad Train
TTITLE3=I'll Let You Know Before I Leave
TTITLE4=Death Don't Have No Mercy
TTITLE5=Tom Cat Blues
TTITLE6=Living In The Moment
TTITLE7=Good Shepherd
TTITLE8=San Francisco Bay Blues
EXTD=
EXTT0=
EXTT1=
EXTT2=
EXTT3=
EXTT4=
EXTT5=
EXTT6=
EXTT7=
EXTT8=
PLAYORDER=
